<mxfile host="Electron" modified="2024-01-17T07:01:40.812Z" agent="Mozilla/5.0 (Windows NT 10.0; Win64; x64) AppleWebKit/537.36 (KHTML, like Gecko) draw.io/21.2.8 Chrome/112.0.5615.165 Electron/24.2.0 Safari/537.36" etag="EUAQoRZ2dE16kgJo0ezc" version="21.2.8" type="device">
  <diagram name="Page-1" id="-jxvSyGWAUEqp79O6zsW">
    <mxGraphModel dx="1658" dy="820" grid="1" gridSize="10" guides="1" tooltips="1" connect="1" arrows="1" fold="1" page="1" pageScale="1" pageWidth="3300" pageHeight="4681" background="#999999" math="0" shadow="0">
      <root>
        <mxCell id="0" />
        <mxCell id="1" parent="0" />
        <mxCell id="6hkyp1WjqBBNFLjfKdsw-1" value="&lt;font style=&quot;font-size: 29px;&quot;&gt;Install a compiler debugger&lt;/font&gt;" style="rounded=0;whiteSpace=wrap;html=1;fillColor=#dae8fc;strokeColor=#6c8ebf;" parent="1" vertex="1">
          <mxGeometry x="180" y="370" width="280" height="100" as="geometry" />
        </mxCell>
        <mxCell id="6hkyp1WjqBBNFLjfKdsw-2" value="&lt;font style=&quot;font-size: 29px;&quot;&gt;Install VS Code and necessary extensions&lt;/font&gt;" style="rounded=0;whiteSpace=wrap;html=1;fillColor=#dae8fc;strokeColor=#6c8ebf;" parent="1" vertex="1">
          <mxGeometry x="600" y="370" width="360" height="100" as="geometry" />
        </mxCell>
        <mxCell id="6hkyp1WjqBBNFLjfKdsw-3" value="&lt;font style=&quot;font-size: 29px;&quot;&gt;Configure (running and debugging)&lt;/font&gt;" style="rounded=0;whiteSpace=wrap;html=1;fillColor=#dae8fc;strokeColor=#6c8ebf;" parent="1" vertex="1">
          <mxGeometry x="1090" y="370" width="280" height="100" as="geometry" />
        </mxCell>
        <mxCell id="6hkyp1WjqBBNFLjfKdsw-5" value="GCC" style="rounded=0;whiteSpace=wrap;html=1;fontStyle=0;fillColor=#f8cecc;strokeColor=#b85450;fontSize=18;" parent="1" vertex="1">
          <mxGeometry x="260" y="620" width="150" height="60" as="geometry" />
        </mxCell>
        <mxCell id="6hkyp1WjqBBNFLjfKdsw-6" value="CLANG" style="rounded=0;whiteSpace=wrap;html=1;fillColor=#fff2cc;strokeColor=#d6b656;fontSize=18;" parent="1" vertex="1">
          <mxGeometry x="260" y="700" width="150" height="60" as="geometry" />
        </mxCell>
        <mxCell id="6hkyp1WjqBBNFLjfKdsw-7" value="tasks.json" style="rounded=0;whiteSpace=wrap;html=1;fillColor=#e1d5e7;strokeColor=#9673a6;fontSize=18;" parent="1" vertex="1">
          <mxGeometry x="1155" y="540" width="150" height="60" as="geometry" />
        </mxCell>
        <mxCell id="6hkyp1WjqBBNFLjfKdsw-10" value="C++" style="rounded=0;whiteSpace=wrap;html=1;fillColor=#e1d5e7;strokeColor=#9673a6;fontSize=18;" parent="1" vertex="1">
          <mxGeometry x="706" y="540" width="150" height="60" as="geometry" />
        </mxCell>
        <mxCell id="6hkyp1WjqBBNFLjfKdsw-11" value="launch.json" style="rounded=0;whiteSpace=wrap;html=1;fillColor=#e1d5e7;strokeColor=#9673a6;fontSize=18;" parent="1" vertex="1">
          <mxGeometry x="1160" y="620" width="150" height="60" as="geometry" />
        </mxCell>
        <mxCell id="6hkyp1WjqBBNFLjfKdsw-12" value="&lt;ul style=&quot;font-size: 17px;&quot;&gt;&lt;li style=&quot;font-size: 17px;&quot;&gt;Simple&lt;/li&gt;&lt;/ul&gt;" style="rounded=0;whiteSpace=wrap;html=1;align=left;fontSize=17;fillColor=#d5e8d4;strokeColor=#82b366;" parent="1" vertex="1">
          <mxGeometry x="390" y="1030" width="390" height="260" as="geometry" />
        </mxCell>
        <mxCell id="6hkyp1WjqBBNFLjfKdsw-13" value="&lt;ul style=&quot;font-size: 17px;&quot;&gt;&lt;li style=&quot;font-size: 17px;&quot;&gt;Hard to configure properties&lt;/li&gt;&lt;li style=&quot;font-size: 17px;&quot;&gt;Hard to switch IDEs&lt;/li&gt;&lt;li style=&quot;font-size: 17px;&quot;&gt;Hard to bring in third party dependencies&lt;/li&gt;&lt;li style=&quot;font-size: 17px;&quot;&gt;Hard to use multiple files&lt;/li&gt;&lt;/ul&gt;" style="rounded=0;whiteSpace=wrap;html=1;align=left;fontSize=17;fillColor=#f8cecc;strokeColor=#b85450;" parent="1" vertex="1">
          <mxGeometry x="800" y="1030" width="390" height="260" as="geometry" />
        </mxCell>
        <mxCell id="6hkyp1WjqBBNFLjfKdsw-14" value="Pros" style="rounded=0;whiteSpace=wrap;html=1;fontSize=17;fillColor=#99FF99;" parent="1" vertex="1">
          <mxGeometry x="390" y="970" width="390" height="60" as="geometry" />
        </mxCell>
        <mxCell id="6hkyp1WjqBBNFLjfKdsw-15" value="Cons" style="rounded=0;whiteSpace=wrap;html=1;fontSize=17;fillColor=#FF6666;" parent="1" vertex="1">
          <mxGeometry x="800" y="970" width="390" height="60" as="geometry" />
        </mxCell>
      </root>
    </mxGraphModel>
  </diagram>
</mxfile>
